<svg class="icon" viewBox="0 0 24 24" fill="#fff" xmlns="http://www.w3.org/2000/svg">
  <path id="ver" fill-rule="evenodd" clip-rule="evenodd" d="M21.8258 7.93091C23.1207 8.86364 24 10.3091 24 12C24 13.6909 23.1207 15.1375 21.8258 16.0691C22.0876 17.6422 21.6796 19.296 20.4873 20.4873C19.2927 21.6818 17.64 22.0789 16.0735 21.8236C15.1451 23.1229 13.6865 24 12 24C10.3091 24 8.86036 23.1196 7.92982 21.8225C6.36109 22.0789 4.70727 21.6829 3.51164 20.4873C2.31709 19.2927 1.92 17.6389 2.184 16.0691C0.890182 15.1385 0 13.692 0 12C0 10.308 0.890182 8.86036 2.184 7.93091C1.92 6.36109 2.31709 4.70727 3.51273 3.51273C4.70509 2.31927 6.36 1.91236 7.93855 2.17418C8.86364 0.877091 10.3124 0 12 0C13.6855 0 15.1418 0.876 16.0713 2.17418C17.6444 1.91236 19.296 2.32145 20.4873 3.51273C21.6796 4.704 22.0887 6.35782 21.8258 7.93091ZM16.9975 7.83927C17.1141 7.9225 17.2132 8.02788 17.2891 8.14941C17.3649 8.27093 17.4162 8.40622 17.4398 8.54753C17.4634 8.68885 17.4589 8.83343 17.4266 8.97302C17.3943 9.11262 17.3349 9.24448 17.2516 9.36109L11.7971 16.9975C11.705 17.1264 11.5859 17.2338 11.4482 17.3121C11.3104 17.3903 11.1572 17.4377 10.9993 17.4507C10.8414 17.4638 10.6825 17.4424 10.5337 17.3878C10.385 17.3333 10.2499 17.247 10.1378 17.1349L6.86509 13.8622C6.66637 13.6564 6.55642 13.3809 6.5589 13.0948C6.56139 12.8088 6.67612 12.5352 6.87838 12.3329C7.08064 12.1307 7.35426 12.0159 7.64029 12.0134C7.92632 12.011 8.20189 12.1209 8.40764 12.3196L10.7695 14.6815L15.4756 8.09236C15.6439 7.85701 15.8987 7.69812 16.1841 7.65066C16.4695 7.60319 16.7621 7.67104 16.9975 7.83927Z"/>
</svg>