<svg xmlns="http://www.w3.org/2000/svg" viewBox="0 0 24 24" fill="#fff">
  <path d="M12 2C9.1 2 6.5 3.4 5 5.8 3.5 8.2 3 11.2 3 12c0 2.3 2.5 4 4 4 .3 0 .6 0 .9-.1 1.6.7 3.4 1.1 5.1 1.1 1.8 0 3.6-.4 5.1-1.1.3.1.6.1.9.1 1.5 0 4-1.7 4-4 0-.8-.5-3.8-2-6.2C17.5 3.4 14.9 2 12 2zM7.5 14c-1.4 0-2.5-.6-2.5-2 0-1 .4-1.7 1-2.2.6-.6 1.5-.9 2.5-.9 1.1 0 2 .3 2.5.9.6.5 1 1.2 1 2.2 0 1.4-1.1 2-2.5 2zM16.5 14c-1.4 0-2.5-.6-2.5-2 0-1 .4-1.7 1-2.2.6-.6 1.5-.9 2.5-.9 1.1 0 2 .3 2.5.9.6.5 1 1.2 1 2.2 0 1.4-1.1 2-2.5 2zM8 16c0 2 2 4 4 4s4-2 4-4H8z"/>
</svg>
